{
  "accessors": [
    {
      "bufferView": 2,
      "componentType": 5126,
      "count": 1815,
      "max": [
        0.03802965581417084,
        0.15008632838726044,
        0.09600000083446503
      ],
      "min": [
        -0.04422052204608917,
        -0.15008632838726044,
        -0.09600000083446503
      ],
      "type": "VEC3"
    },
    {
      "bufferView": 2,
      "byteOffset": 21780,
      "componentType": 5126,
      "count": 1815,
      "max": [
        1.0,
        1.0,
        1.0
      ],
      "min": [
        -1.0,
        -1.0,
        -1.0
      ],
      "type": "VEC3"
    },
    {
      "bufferView": 1,
      "componentType": 5126,
      "count": 1815,
      "max": [
        1.0,
        0.7386929988861084
      ],
      "min": [
        0.0,
        0.009999990463256836
      ],
      "type": "VEC2"
    },
    {
      "bufferView": 0,
      "componentType": 5125,
      "count": 7272,
      "type": "SCALAR"
    },
    {
      "bufferView": 2,
      "byteOffset": 43560,
      "componentType": 5126,
      "count": 95,
      "max": [
        0.03802964836359024,
        0.10317759215831757,
        0.08814911544322968
      ],
      "min": [
        0.03802964836359024,
        -0.10317759960889816,
        -0.08814911544322968
      ],
      "type": "VEC3"
    },
    {
      "bufferView": 2,
      "byteOffset": 44700,
      "componentType": 5126,
      "count": 95,
      "max": [
        1.0,
        2.6780764983413974e-07,
        0.0
      ],
      "min": [
        1.0,
        -1.2230042045757727e-07,
        0.0
      ],
      "type": "VEC3"
    },
    {
      "bufferView": 1,
      "byteOffset": 14520,
      "componentType": 5126,
      "count": 95,
      "max": [
        0.6148627400398254,
        0.561113178730011
      ],
      "min": [
        0.0,
        0.0
      ],
      "type": "VEC2"
    },
    {
      "bufferView": 0,
      "byteOffset": 29088,
      "componentType": 5125,
      "count": 279,
      "type": "SCALAR"
    },
    {
      "bufferView": 2,
      "byteOffset": 45840,
      "componentType": 5126,
      "count": 90,
      "max": [
        0.03802964836359024,
        0.09376861155033112,
        0.060792721807956696
      ],
      "min": [
        0.03802964836359024,
        -0.09376861155033112,
        -0.060246579349040985
      ],
      "type": "VEC3"
    },
    {
      "bufferView": 2,
      "byteOffset": 46920,
      "componentType": 5126,
      "count": 90,
      "max": [
        1.0,
        2.6780764983413974e-07,
        0.0
      ],
      "min": [
        1.0,
        -1.2230042045757727e-07,
        0.0
      ],
      "type": "VEC3"
    },
    {
      "bufferView": 1,
      "byteOffset": 15280,
      "componentType": 5126,
      "count": 90,
      "max": [
        0.0,
        0.0
      ],
      "min": [
        0.0,
        0.0
      ],
      "type": "VEC2"
    },
    {
      "bufferView": 0,
      "byteOffset": 30204,
      "componentType": 5125,
      "count": 264,
      "type": "SCALAR"
    },
    {
      "bufferView": 2,
      "byteOffset": 48000,
      "componentType": 5126,
      "count": 300,
      "max": [
        0.03802965208888054,
        0.12376759201288223,
        0.06973321735858917
      ],
      "min": [
        0.03325587138533592,
        0.11876759678125381,
        0.06473322212696075
      ],
      "type": "VEC3"
    },
    {
      "bufferView": 2,
      "byteOffset": 51600,
      "componentType": 5126,
      "count": 300,
      "max": [
        1.0,
        1.0,
        1.0
      ],
      "min": [
        0.0,
        -1.0,
        -1.0
      ],
      "type": "VEC3"
    },
    {
      "bufferView": 1,
      "byteOffset": 16000,
      "componentType": 5126,
      "count": 300,
      "max": [
        1.0,
        1.0
      ],
      "min": [
        0.0,
        0.12999922037124634
      ],
      "type": "VEC2"
    },
    {
      "bufferView": 0,
      "byteOffset": 31260,
      "componentType": 5125,
      "count": 672,
      "type": "SCALAR"
    },
    {
      "bufferView": 2,
      "byteOffset": 55200,
      "componentType": 5126,
      "count": 2010,
      "max": [
        0.01131605077534914,
        0.15267115831375122,
        0.0984996035695076
      ],
      "min": [
        -0.009892582893371582,
        -0.15267115831375122,
        -0.0984996035695076
      ],
      "type": "VEC3"
    },
    {
      "bufferView": 2,
      "byteOffset": 79320,
      "componentType": 5126,
      "count": 2010,
      "max": [
        1.0,
        1.0,
        1.0
      ],
      "min": [
        -1.0,
        -1.0,
        -1.0
      ],
      "type": "VEC3"
    },
    {
      "bufferView": 1,
      "byteOffset": 18400,
      "componentType": 5126,
      "count": 2010,
      "max": [
        0.5,
        0.5669240951538086
      ],
      "min": [
        0.0,
        0.0
      ],
      "type": "VEC2"
    },
    {
      "bufferView": 0,
      "byteOffset": 33948,
      "componentType": 5125,
      "count": 10128,
      "type": "SCALAR"
    }
  ],
  "asset": {
    "extras": {
      "author": "YouniqueĪdeaStudio (https://sketchfab.com/sinnervoncrawsz)",
      "license": "CC-BY-4.0 (http://creativecommons.org/licenses/by/4.0/)",
      "source": "https://sketchfab.com/3d-models/exit-box-ebe3a7a64c65412cb65e433d90dbf884",
      "title": "Exit Box"
    },
    "generator": "Sketchfab-14.5.0",
    "version": "2.0"
  },
  "bufferViews": [
    {
      "buffer": 0,
      "byteLength": 74460,
      "name": "floatBufferViews",
      "target": 34963
    },
    {
      "buffer": 0,
      "byteLength": 34480,
      "byteOffset": 74460,
      "byteStride": 8,
      "name": "floatBufferViews",
      "target": 34962
    },
    {
      "buffer": 0,
      "byteLength": 103440,
      "byteOffset": 108940,
      "byteStride": 12,
      "name": "floatBufferViews",
      "target": 34962
    }
  ],
  "buffers": [
    {
      "byteLength": 212380,
      "uri": "scene.bin"
    }
  ],
  "extensionsUsed": [
    "KHR_materials_transmission"
  ],
  "materials": [
    {
      "doubleSided": true,
      "name": "Material.014",
      "pbrMetallicRoughness": {
        "baseColorFactor": [
          0.5995925526260523,
          0.5242414920573998,
          0.5242414920573998,
          1.0
        ],
        "metallicFactor": 0.0,
        "roughnessFactor": 0.1388217135480526
      }
    },
    {
      "doubleSided": true,
      "emissiveFactor": [
        0.0014072694048755728,
        0.13675055690386392,
        0.0
      ],
      "name": "Material.016",
      "pbrMetallicRoughness": {
        "baseColorFactor": [
          3.058039453013375e-05,
          0.1993516742589704,
          0.0,
          1.0
        ],
        "metallicFactor": 0.0
      }
    },
    {
      "doubleSided": true,
      "emissiveFactor": [
        1.0,
        1.0,
        1.0
      ],
      "name": "Material.017",
      "pbrMetallicRoughness": {
        "metallicFactor": 0.0,
        "roughnessFactor": 0.7763932022500211
      }
    },
    {
      "doubleSided": true,
      "emissiveFactor": [
        0.9657715116246883,
        0.0,
        0.0
      ],
      "name": "Material.020",
      "pbrMetallicRoughness": {
        "baseColorFactor": [
          0.5004309245972784,
          0.002249338861173768,
          4.192921369923526e-05,
          1.0
        ],
        "metallicFactor": 0.0,
        "roughnessFactor": 0.9615337078185906
      }
    },
    {
      "alphaMode": "BLEND",
      "doubleSided": true,
      "extensions": {
        "KHR_materials_transmission": {
          "transmissionFactor": 0.9368992372741022
        }
      },
      "name": "Material.018",
      "pbrMetallicRoughness": {
        "baseColorFactor": [
          0.4805318073004805,
          0.4805318073004805,
          0.4805318073004805,
          0.25
        ],
        "metallicFactor": 0.0,
        "roughnessFactor": 0.0
      }
    }
  ],
  "meshes": [
    {
      "name": "Cube_Material.014_0",
      "primitives": [
        {
          "attributes": {
            "NORMAL": 1,
            "POSITION": 0,
            "TEXCOORD_0": 2
          },
          "indices": 3,
          "material": 0,
          "mode": 4
        }
      ]
    },
    {
      "name": "Cube_Material.016_0",
      "primitives": [
        {
          "attributes": {
            "NORMAL": 5,
            "POSITION": 4,
            "TEXCOORD_0": 6
          },
          "indices": 7,
          "material": 1,
          "mode": 4
        }
      ]
    },
    {
      "name": "Cube_Material.017_0",
      "primitives": [
        {
          "attributes": {
            "NORMAL": 9,
            "POSITION": 8,
            "TEXCOORD_0": 10
          },
          "indices": 11,
          "material": 2,
          "mode": 4
        }
      ]
    },
    {
      "name": "Cube_Material.020_0",
      "primitives": [
        {
          "attributes": {
            "NORMAL": 13,
            "POSITION": 12,
            "TEXCOORD_0": 14
          },
          "indices": 15,
          "material": 3,
          "mode": 4
        }
      ]
    },
    {
      "name": "Cube.002_Material.018_0",
      "primitives": [
        {
          "attributes": {
            "NORMAL": 17,
            "POSITION": 16,
            "TEXCOORD_0": 18
          },
          "indices": 19,
          "material": 4,
          "mode": 4
        }
      ]
    }
  ],
  "nodes": [
    {
      "children": [
        1
      ],
      "matrix": [
        1.0,
        0.0,
        0.0,
        0.0,
        0.0,
        2.220446049250313e-16,
        -1.0,
        0.0,
        0.0,
        1.0,
        2.220446049250313e-16,
        0.0,
        0.0,
        0.0,
        0.0,
        1.0
      ],
      "name": "Sketchfab_model"
    },
    {
      "children": [
        2
      ],
      "matrix": [
        0.009999999776482582,
        0.0,
        0.0,
        0.0,
        0.0,
        0.0,
        0.009999999776482582,
        0.0,
        0.0,
        -0.009999999776482582,
        0.0,
        0.0,
        0.0,
        0.0,
        0.0,
        1.0
      ],
      "name": "cd3d0811bafd47ccbce6e3d5aafed418.fbx"
    },
    {
      "children": [
        3,
        8
      ],
      "name": "RootNode"
    },
    {
      "children": [
        4,
        5,
        6,
        7
      ],
      "matrix": [
        100.0,
        0.0,
        0.0,
        0.0,
        0.0,
        -1.629206793918314e-05,
        -99.99999999999868,
        0.0,
        0.0,
        99.99999999999868,
        -1.629206793918314e-05,
        0.0,
        0.0,
        0.0,
        0.0,
        1.0
      ],
      "name": "Cube"
    },
    {
      "mesh": 0,
      "name": "Cube_Material.014_0"
    },
    {
      "mesh": 1,
      "name": "Cube_Material.016_0"
    },
    {
      "mesh": 2,
      "name": "Cube_Material.017_0"
    },
    {
      "mesh": 3,
      "name": "Cube_Material.020_0"
    },
    {
      "children": [
        9
      ],
      "matrix": [
        100.0,
        0.0,
        0.0,
        0.0,
        0.0,
        -1.629206793918314e-05,
        -99.99999999999868,
        0.0,
        0.0,
        99.99999999999868,
        -1.629206793918314e-05,
        0.0,
        3.084024429321289,
        0.0,
        0.0,
        1.0
      ],
      "name": "Cube.002"
    },
    {
      "mesh": 4,
      "name": "Cube.002_Material.018_0"
    }
  ],
  "scene": 0,
  "scenes": [
    {
      "name": "Sketchfab_Scene",
      "nodes": [
        0
      ]
    }
  ]
}
